# xmcd
#
# Track frame offsets:
#	150
#	14379
#	43272
#	64966
#	82972
#	97704
#	119739
#	140612
#	163541
#	182132
#	203818
#	229976
#
# Disc length: 3444 seconds
# Revision: 0
# Processed by: cddbd v1.5.2PL0 Copyright (c) Steve Scherf et al.
# Submitted via: dBpowerAMP V12.0
#
DISCID=a50d720c
DTITLE=The Apocalypse Blues Revue - The Apocalypse Blues Revue
DYEAR=2016
DGENRE=Blues
TTITLE0=Evil Is As Evil Does
TTITLE1=Junkie Hell
TTITLE2=Devil Plays A Strat
TTITLE3=I Think Not
TTITLE4=Whiskey In My Coffee
TTITLE5=The Tower
TTITLE6=Crossed Over
TTITLE7=Blues Are Fallin' From The Sky
TTITLE8=Work In Progress
TTITLE9=The Devil In Me
TTITLE10=Blue Cross
TTITLE11=When The Music's Over (bonus track)
EXTD=
EXTT0=
EXTT1=
EXTT2=
EXTT3=
EXTT4=
EXTT5=
EXTT6=
EXTT7=
EXTT8=
EXTT9=
EXTT10=
EXTT11=
PLAYORDER=
